# xmcd
#
# Track frame offsets:
#	182
#	17095
#	28605
#	41450
#	58827
#	70097
#	83870
#	96640
#	113955
#	124765
#
# Disc length: 1847 seconds
#
# Revision: 1881714271
# Processed by: cddbd v1.5.2PL0 Copyright (c) Steve Scherf et al.
# Submitted via: EZCDAudioConverter 9.1.1.1
#
DISCID=8607350a
DTITLE=Various Artist - This Country's Rockin'
DYEAR=1992
DGENRE=Country
TTITLE0=Highway 101 - (Do You Love Me) Just Say Yes
TTITLE1=Steve Earle - Guitar Town
TTITLE2=Lyle Lovett - Cowboy Man
TTITLE3=The Nitty Gritty Dirt Band - Workin' Man (Nowhere To Go)
TTITLE4=Hank Williams Jr. Feat. Reba McEntire, Tom Petty, Reverend Ike and Willi
TTITLE4=e Nelson - Mind Your Own Business- Hank Williams Jr.
TTITLE5=Dwight Yoakam - Little Sister
TTITLE6=k.d. lang - Full Moon Full Of Love- K.D. Lang
TTITLE7=Southern Pacific - Honey I Dare You
TTITLE8=Billy Hill - Too Much Month At The End Of The Money
TTITLE9=The Desert Rose Band - He's Back And I'm Blue
EXTD=
EXTT0=
EXTT1=
EXTT2=
EXTT3=
EXTT4=
EXTT5=
EXTT6=
EXTT7=
EXTT8=
EXTT9=
PLAYORDER=
